/* XPM */
static char * ButtonR_xpm[] = {
"50 50 333 2",
"  	c None",
". 	c #665E5B",
"+ 	c #0F0A08",
"@ 	c #17100D",
"# 	c #1D1411",
"$ 	c #211814",
"% 	c #251C18",
"& 	c #342924",
"* 	c #453A35",
"= 	c #564D4A",
"- 	c #716F6E",
"; 	c #919191",
"> 	c #B6B6B6",
", 	c #E8E8E8",
"' 	c #3F3531",
") 	c #3B1607",
"! 	c #521F09",
"~ 	c #762401",
"{ 	c #A13001",
"] 	c #E04301",
"^ 	c #EF4701",
"/ 	c #ED4701",
"( 	c #E64501",
"_ 	c #DF4201",
": 	c #D84001",
"< 	c #CA3C01",
"[ 	c #BA3701",
"} 	c #A93201",
"| 	c #882902",
"1 	c #61250B",
"2 	c #391C0F",
"3 	c #0D0806",
"4 	c #3F3430",
"5 	c #989898",
"6 	c #C9C9C9",
"7 	c #969696",
"8 	c #939393",
"9 	c #72706F",
"0 	c #473E3A",
"a 	c #1B0F09",
"b 	c #B73701",
"c 	c #FF4C01",
"d 	c #EB4601",
"e 	c #D53F01",
"f 	c #C53B01",
"g 	c #CC3D01",
"h 	c #E24301",
"i 	c #FB4B01",
"j 	c #F74A01",
"k 	c #B13501",
"l 	c #4D1F0C",
"m 	c #1A1310",
"n 	c #949393",
"o 	c #B2B2B2",
"p 	c #160F0C",
"q 	c #CF3E01",
"r 	c #F84A01",
"s 	c #6E270A",
"t 	c #3B1D10",
"u 	c #130C08",
"v 	c #130D0B",
"w 	c #261D19",
"x 	c #372C28",
"y 	c #2F2520",
"z 	c #1A130F",
"A 	c #0E0806",
"B 	c #4B200E",
"C 	c #A43101",
"D 	c #FC4B01",
"E 	c #CB3D01",
"F 	c #35170B",
"G 	c #47403D",
"H 	c #E1E1E1",
"I 	c #7C7A79",
"J 	c #6B2507",
"K 	c #191310",
"L 	c #B8B8B8",
"M 	c #DFDFDF",
"N 	c #DEDEDE",
"O 	c #A0A0A0",
"P 	c #3B322E",
"Q 	c #25120A",
"R 	c #6F2607",
"S 	c #2C2421",
"T 	c #CDCDCD",
"U 	c #1E110B",
"V 	c #A6A6A6",
"W 	c #150E0B",
"X 	c #A53202",
"Y 	c #7C2906",
"Z 	c #332B28",
"` 	c #E9E9E9",
" .	c #E5E5E5",
"..	c #0A0604",
"+.	c #CACACA",
"@.	c #19120E",
"#.	c #BE3901",
"$.	c #54200A",
"%.	c #6A6563",
"&.	c #060403",
"*.	c #F94A01",
"=.	c #B9B9B9",
"-.	c #190E0A",
";.	c #EE4701",
">.	c #170D09",
",.	c #C5C5C5",
"'.	c #16100D",
").	c #E74501",
"!.	c #645E5B",
"~.	c #7C2805",
"{.	c #892C04",
"].	c #57514E",
"^.	c #1F1613",
"/.	c #D4D4D4",
"(.	c #150C08",
"_.	c #FE4C01",
":.	c #281F1B",
"<.	c #CD3D01",
"[.	c #2F170D",
"}.	c #BBBBBB",
"|.	c #5E5754",
"1.	c #982D01",
"2.	c #5A230C",
"3.	c #777574",
"4.	c #852801",
"5.	c #712606",
"6.	c #868686",
"7.	c #818181",
"8.	c #7D2602",
"9.	c #692509",
"0.	c #8C8C8C",
"a.	c #6A6562",
"b.	c #942C01",
"c.	c #4F210D",
"d.	c #A1A1A1",
"e.	c #453B37",
"f.	c #B03401",
"g.	c #F04801",
"h.	c #D64001",
"i.	c #1D1512",
"j.	c #888686",
"k.	c #50200C",
"l.	c #682407",
"m.	c #716D6C",
"n.	c #DADADA",
"o.	c #140E0B",
"p.	c #DC4201",
"q.	c #110B09",
"r.	c #DDDDDD",
"s.	c #E4E4E4",
"t.	c #352D2A",
"u.	c #812B06",
"v.	c #FA4B01",
"w.	c #34170B",
"x.	c #868483",
"y.	c #D6D6D6",
"z.	c #372F2B",
"A.	c #6A2407",
"B.	c #56200A",
"C.	c #4F4845",
"D.	c #8D8C8B",
"E.	c #852A04",
"F.	c #E94501",
"G.	c #481D0B",
"H.	c #504946",
"I.	c #D8D8D8",
"J.	c #AAAAAA",
"K.	c #625D5B",
"L.	c #100B09",
"M.	c #491E0C",
"N.	c #992E02",
"O.	c #150D09",
"P.	c #0A0605",
"Q.	c #433834",
"R.	c #413631",
"S.	c #332824",
"T.	c #251B18",
"U.	c #110C0A",
"V.	c #491F0D",
"W.	c #862A03",
"X.	c #E34401",
"Y.	c #E44401",
"Z.	c #842A04",
"`.	c #413733",
" +	c #C6C6C6",
".+	c #B83701",
"++	c #BB3801",
"@+	c #C93C01",
"#+	c #EA4601",
"$+	c #762605",
"%+	c #2B160D",
"&+	c #130E0B",
"*+	c #605A58",
"=+	c #C7C7C7",
"-+	c #8C2A02",
";+	c #862801",
">+	c #872801",
",+	c #812601",
"'+	c #7C2602",
")+	c #9C2F02",
"!+	c #929292",
"~+	c #120E0C",
"{+	c #777676",
"]+	c #7C7C7C",
"^+	c #221A17",
"/+	c #AA3301",
"(+	c #A63201",
"_+	c #29211E",
":+	c #BEBEBE",
"<+	c #5E2209",
"[+	c #635D5B",
"}+	c #817E7D",
"|+	c #3A190A",
"1+	c #F34801",
"2+	c #23120A",
"3+	c #413A37",
"4+	c #7E2905",
"5+	c #D9D9D9",
"6+	c #17100E",
"7+	c #C23A01",
"8+	c #882B04",
"9+	c #3F3734",
"0+	c #1D0F09",
"a+	c #FD4B01",
"b+	c #411B0B",
"c+	c #807D7C",
"d+	c #511F09",
"e+	c #E54401",
"f+	c #180E0A",
"g+	c #2F2723",
"h+	c #992F02",
"i+	c #231B18",
"j+	c #CBCBCB",
"k+	c #140D0A",
"l+	c #6A2508",
"m+	c #5A5350",
"n+	c #949392",
"o+	c #2D150A",
"p+	c #2A140B",
"q+	c #9C9C9C",
"r+	c #534B49",
"s+	c #6C2507",
"t+	c #D33F01",
"u+	c #D2D2D2",
"v+	c #E2E2E2",
"w+	c #201815",
"x+	c #B23501",
"y+	c #932E03",
"z+	c #BABABA",
"A+	c #4C1E0B",
"B+	c #726E6C",
"C+	c #251B17",
"D+	c #7D7978",
"E+	c #411B0A",
"F+	c #1E1009",
"G+	c #A3A2A2",
"H+	c #150F0C",
"I+	c #E84501",
"J+	c #1B1310",
"K+	c #3D3531",
"L+	c #872B04",
"M+	c #C8C8C8",
"N+	c #080504",
"O+	c #F54901",
"P+	c #0C0806",
"Q+	c #D7D7D7",
"R+	c #160F0D",
"S+	c #A33102",
"T+	c #241D1A",
"U+	c #050302",
"V+	c #070403",
"W+	c #22110A",
"X+	c #F14801",
"Y+	c #702607",
"Z+	c #3F3835",
"`+	c #28150D",
" @	c #1F110B",
".@	c #CECECE",
"+@	c #645F5C",
"@@	c #5A2109",
"#@	c #6D2608",
"$@	c #2E2623",
"%@	c #747170",
"&@	c #762706",
"*@	c #722606",
"=@	c #797574",
"-@	c #2A221F",
";@	c #A13102",
">@	c #8E2D04",
",@	c #1F1714",
"'@	c #AFAFAF",
")@	c #757270",
"!@	c #D43F01",
"~@	c #150D0A",
"{@	c #969594",
"]@	c #DB4101",
"^@	c #B53601",
"/@	c #2E160C",
"(@	c #2C231F",
"_@	c #A9A8A7",
":@	c #696462",
"<@	c #655F5D",
"[@	c #3A190B",
"}@	c #2F150A",
"|@	c #211815",
"1@	c #4A403B",
"2@	c #67615F",
"3@	c #B1AFAF",
"4@	c #8E8C8C",
"5@	c #33170B",
"6@	c #BC3801",
"7@	c #4D200C",
"8@	c #120A07",
"9@	c #4B403C",
"0@	c #ADACAB",
"a@	c #3D322D",
"b@	c #3B1200",
"c@	c #521800",
"d@	c #792400",
"e@	c #BF3901",
"f@	c #BD3801",
"g@	c #972D01",
"h@	c #6E2100",
"i@	c #511800",
"j@	c #371000",
"k@	c #4B413C",
"l@	c #4D4642",
"m@	c #692306",
"n@	c #531900",
"o@	c #888280",
"p@	c #3C312C",
"q@	c #928D8B",
"r@	c #4B433F",
"                                                                                                    ",
"  . + + + + + + + + + + + + + + + + + @ # $ % & * = - ; > ,                                         ",
"  ' ) ! ~ { ] ^ ^ ^ ^ ^ ^ ^ ^ ^ ^ ^ ^ / ( _ : < [ } | 1 2 3 4 5 ,                                   ",
"  6 7 8 9 0 a b c c c c c c c c c c d e f g h i c c c c c j k l m n                                 ",
"            o p q c c c c c r s t u v w x y z A B C D c c c c c E F G H                             ",
"              I J c c c c c : K L M           N O P Q f c c c c c i R S M                           ",
"              T U c c c c c : %                     V W X c c c c c c Y Z `                         ",
"               ...c c c c c : %                       +.@.#.c c c c c c $.%.                        ",
"                &.*.c c c c : %                         =.-.^ c c c c c ;.>.,.                      ",
"                '.).c c c c : %                           !.~.c c c c c c {.].                      ",
"                ^._ c c c c : %                           /.(._.c c c c c / +                       ",
"                ^._ c c c c : %                             :.<.c c c c c c [.}.                    ",
"                ^._ c c c c : %                             |.1.c c c c c c 2.5                     ",
"                ^._ c c c c : %                             3.4.c c c c c c 5.6.                    ",
"                ^._ c c c c : %                             7.8.c c c c c c 9.0.                    ",
"                ^._ c c c c : %                             a.b.c c c c c c c.d.                    ",
"                ^._ c c c c : %                             e.f.c c c c c c a T                     ",
"                ^._ c c c c : %                           H 3 g.c c c c c h.i.                      ",
"                ^._ c c c c : %                           j.k.c c c c c c l.m.                      ",
"                ^._ c c c c : %                         n.o.: c c c c c p.q.r.                      ",
"                ^._ c c c c : %                       s.t.u.c c c c c v.w.x.                        ",
"                ^._ c c c c : %                     y.z.A.c c c c c v.B.C.                          ",
"                ^._ c c c c : %                 , D.W E._.c c c c F.G.H.                            ",
"                ^._ c c c c : %           I.J.K.L.M.e c c c c i N.O.m.                              ",
"                ^._ c c c c _ P.Q.R.S.T.U.(.V.W.X.c c c c Y.Z.a `. +                                ",
"                ^._ c c c c c E .+++@+: #+c c c c c _.$+%+&+*+=+                                    ",
"                ^._ c c c c i -+;+>+,+'+)+c c c c c ^ A !+                                          ",
"                ^._ c c c c : ~+9 9 {+]+^+/+c c c c c (+_+,                                         ",
"                ^._ c c c c : %         :+(.] c c c c c <+[+                                        ",
"                ^._ c c c c : %           }+|+D c c c c 1+2+V                                       ",
"                ^._ c c c c : %             3+4+c c c c c < @ I.                                    ",
"                ^._ c c c c : %             5+6+7+c c c c c 8+9+                                    ",
"                ^._ c c c c : %               J.0+;.c c c c a+b+c+                                  ",
"                ^._ c c c c : %                 a.d+c c c c c e+f+:+                                ",
"                ^._ c c c c : %                   g+h+c c c c c k i+ .                              ",
"                ^._ c c c c : %                   j+k+e c c c c c l+m+                              ",
"                ^._ c c c c : %                     n+o+r c c c c j p+q+                            ",
"                ^._ c c c c : %                       r+s+c c c c c t+p u+                          ",
"                ^._ c c c c : %                       v+w+x+c c c c c y+z.                          ",
"                ^._ c c c c : %                         z+>.e+c c c c c A+B+                        ",
"                ^._ c c c c : C+                          D+E+a+c c c c #+F+G+                      ",
"                H+I+c c c c Y.J+                            K+L+c c c c c <.k+M+                    ",
"                N+j c c c c O+P+                            Q+R+@+c c c c c S+T+v+                  ",
"                U+c c c c c c V+                              V W+X+c c c c c Y+Z+s.                ",
"              =+`+c c c c c c  @.@                              +@@@c c c c c a+#@$@I.              ",
"              %@&@c c c c c c *@=@                              , -@;@c c c c c c >@,@'@            ",
"            )@0+p.c c c c c c !@~@{@                              M+~@]@c c c c c c ^@/@(@7 n.      ",
"  _@:@<@4 U.[@).c c c c c c c c !@}@|@1@2@:@3@                      4@5@v.c c c c c c c 6@7@8@z 9@0@",
"  a@b@c@d@/+e@e@e@e@e@e@e@e@e@e@e@f@g@h@i@j@k@                        l@m@e@e@e@e@e@e@e@e@e@e@{ n@k@",
"  o@p@p@p@p@p@p@p@p@p@p@p@p@p@p@p@p@p@p@p@p@q@                        M r@p@p@p@p@p@p@p@p@p@p@p@p@q@"};
