/* XPM */
static char * ButtonLastPosition_xpm[] = {
"100 50 517 2",
"  	c None",
". 	c #636363",
"+ 	c #929292",
"@ 	c #494949",
"# 	c #060606",
"$ 	c #2B2B2B",
"% 	c #B0B0B0",
"& 	c #000000",
"* 	c #070707",
"= 	c #828282",
"- 	c #191919",
"; 	c #424242",
"> 	c #797979",
", 	c #343434",
"' 	c #292929",
") 	c #AAAAAA",
"! 	c #717171",
"~ 	c #ABABAB",
"{ 	c #AFAFAF",
"] 	c #1C1C1C",
"^ 	c #969696",
"/ 	c #333F41",
"( 	c #334041",
"_ 	c #575E5F",
": 	c #DBDBDB",
"< 	c #3A3A3A",
"[ 	c #575757",
"} 	c #7C7C7C",
"| 	c #024C59",
"1 	c #009FBB",
"2 	c #00A1BB",
"3 	c #00A2BB",
"4 	c #00A3BB",
"5 	c #00A4BB",
"6 	c #00A6BB",
"7 	c #00A7BB",
"8 	c #0A4A51",
"9 	c #3A4343",
"0 	c #353535",
"a 	c #8B8B8B",
"b 	c #868686",
"c 	c #075E70",
"d 	c #00D4FF",
"e 	c #00D6FF",
"f 	c #00D7FF",
"g 	c #00D9FF",
"h 	c #00DBFF",
"i 	c #00DDFF",
"j 	c #00DEFF",
"k 	c #00DCFB",
"l 	c #06535D",
"m 	c #253031",
"n 	c #D9D9D9",
"o 	c #CECECE",
"p 	c #121212",
"q 	c #8F8F8F",
"r 	c #0A5465",
"s 	c #00CFFF",
"t 	c #00D0FF",
"u 	c #00D2FF",
"v 	c #00D5FF",
"w 	c #047E90",
"x 	c #11191A",
"y 	c #C2C2C2",
"z 	c #656565",
"A 	c #747474",
"B 	c #CACACA",
"C 	c #707070",
"D 	c #6C7070",
"E 	c #696F70",
"F 	c #5B6162",
"G 	c #5A5F60",
"H 	c #585E60",
"I 	c #535E61",
"J 	c #343B3D",
"K 	c #0A4A5B",
"L 	c #00CAFF",
"M 	c #00CBFF",
"N 	c #00CDFF",
"O 	c #00CEFF",
"P 	c #00D8FF",
"Q 	c #00DAFF",
"R 	c #038EA4",
"S 	c #0E1718",
"T 	c #C1C1C1",
"U 	c #222222",
"V 	c #384143",
"W 	c #024F62",
"X 	c #006C88",
"Y 	c #006B88",
"Z 	c #006A88",
"` 	c #006988",
" .	c #006888",
"..	c #006788",
"+.	c #006688",
"@.	c #007197",
"#.	c #007299",
"$.	c #007399",
"%.	c #007499",
"&.	c #0096C4",
"*.	c #00C5FF",
"=.	c #00C6FF",
"-.	c #00C7FF",
";.	c #00C9FF",
">.	c #00ACCA",
",.	c #0C1C1F",
"'.	c #7A7E7E",
").	c #151515",
"!.	c #D7D7D7",
"~.	c #C7C7C7",
"{.	c #B2B2B2",
"].	c #0C2227",
"^.	c #00C8FB",
"/.	c #00C3FF",
"(.	c #00C2FF",
"_.	c #00C0FF",
":.	c #00BFFF",
"<.	c #00BEFF",
"[.	c #00BDFF",
"}.	c #00BCFF",
"|.	c #00BBFF",
"1.	c #00BAFF",
"2.	c #00C1FF",
"3.	c #00C4FF",
"4.	c #00D1FF",
"5.	c #00D3FF",
"6.	c #00C4E9",
"7.	c #0C373E",
"8.	c #41494B",
"9.	c #A1A1A1",
"0.	c #1F1F1F",
"a.	c #D4D4D4",
"b.	c #303A3D",
"c.	c #0083A4",
"d.	c #00C8FF",
"e.	c #00B9FF",
"f.	c #00B8FF",
"g.	c #00B7FF",
"h.	c #00B6FF",
"i.	c #00CCFF",
"j.	c #00D1FC",
"k.	c #066B7F",
"l.	c #141C1E",
"m.	c #BDBDBD",
"n.	c #595959",
"o.	c #434343",
"p.	c #2A2A2A",
"q.	c #1D1D1D",
"r.	c #696969",
"s.	c #C3C3C3",
"t.	c #09181B",
"u.	c #00C7F9",
"v.	c #00B5FF",
"w.	c #00B4FF",
"x.	c #00B3FF",
"y.	c #00B2FF",
"z.	c #0287A3",
"A.	c #0A1314",
"B.	c #9C9C9C",
"C.	c #474747",
"D.	c #010101",
"E.	c #0C0C0C",
"F.	c #555555",
"G.	c #A0A0A0",
"H.	c #262626",
"I.	c #7D7D7D",
"J.	c #61686A",
"K.	c #036880",
"L.	c #00B1FF",
"M.	c #00B0FF",
"N.	c #00AFFF",
"O.	c #00AEFF",
"P.	c #00ADFF",
"Q.	c #00AAD0",
"R.	c #09242A",
"S.	c #4C5759",
"T.	c #020202",
"U.	c #212121",
"V.	c #878787",
"W.	c #181818",
"X.	c #1A1A1A",
"Y.	c #141414",
"Z.	c #0C1416",
"`.	c #00B4DD",
" +	c #00ACFF",
".+	c #00ABFF",
"++	c #00AAFF",
"@+	c #00A9FF",
"#+	c #00C6F6",
"$+	c #05586B",
"%+	c #141F21",
"&+	c #B9B9B9",
"*+	c #4C4C4C",
"=+	c #626262",
"-+	c #DCDCDC",
";+	c #8C8C8C",
">+	c #505050",
",+	c #B8B8B8",
"'+	c #0D2D33",
")+	c #00A8FF",
"!+	c #00A7FF",
"~+	c #00A6FF",
"{+	c #00A5FF",
"]+	c #0092B5",
"^+	c #0A1719",
"/+	c #717677",
"(+	c #6D6D6D",
"_+	c #2E2E2E",
":+	c #757878",
"<+	c #046578",
"[+	c #00A3FF",
"}+	c #00A2FF",
"|+	c #00A1FF",
"1+	c #00A4FF",
"2+	c #00C0F0",
"3+	c #0A4A59",
"4+	c #1F282A",
"5+	c #C5C5C5",
"6+	c #5D5D5D",
"7+	c #464646",
"8+	c #787878",
"9+	c #767676",
"0+	c #303D3F",
"a+	c #009AB6",
"b+	c #00A0FF",
"c+	c #009FFF",
"d+	c #009EFF",
"e+	c #009DFF",
"f+	c #00C9FE",
"g+	c #037996",
"h+	c #0B1315",
"i+	c #939495",
"j+	c #373737",
"k+	c #6E6E6E",
"l+	c #818181",
"m+	c #131D1F",
"n+	c #00BFDF",
"o+	c #009BFF",
"p+	c #009AFF",
"q+	c #0099FF",
"r+	c #00AAD6",
"s+	c #0B2930",
"t+	c #404A4C",
"u+	c #D5D5D5",
"v+	c #161616",
"w+	c #757575",
"x+	c #7B7B7B",
"y+	c #040708",
"z+	c #00D6F7",
"A+	c #009CFF",
"B+	c #0098FF",
"C+	c #0096FF",
"D+	c #0095FF",
"E+	c #0097FF",
"F+	c #00C4F7",
"G+	c #046B84",
"H+	c #0B1416",
"I+	c #767A7B",
"J+	c #BBBBBB",
"K+	c #7E7E7E",
"L+	c #6F6F6F",
"M+	c #060D0E",
"N+	c #00DFFF",
"O+	c #00DCFF",
"P+	c #0093FF",
"Q+	c #0091FF",
"R+	c #0092FF",
"S+	c #0094FF",
"T+	c #00B6E4",
"U+	c #094B5A",
"V+	c #090F10",
"W+	c #6C7071",
"X+	c #9F9F9F",
"Y+	c #030708",
"Z+	c #00E3FF",
"`+	c #00E0FF",
" @	c #008EFF",
".@	c #008DFF",
"+@	c #00B1DB",
"@@	c #07586A",
"#@	c #081214",
"$@	c #323E40",
"%@	c #0B1313",
"&@	c #00CFE6",
"*@	c #0090FF",
"=@	c #008AFF",
"-@	c #0089FF",
";@	c #008CFF",
">@	c #008FFF",
",@	c #00CAF8",
"'@	c #008FAD",
")@	c #0A4D59",
"!@	c #060E10",
"~@	c #1C282A",
"{@	c #535D5F",
"]@	c #909090",
"^@	c #242424",
"/@	c #BEBEBE",
"(@	c #374345",
"_@	c #009CAB",
":@	c #00E6FF",
"<@	c #00D2FA",
"[@	c #00A8C5",
"}@	c #007C90",
"|@	c #08505B",
"1@	c #0B2225",
"2@	c #05090A",
"3@	c #1C2B2C",
"4@	c #3A4A4B",
"5@	c #5F6869",
"6@	c #888888",
"7@	c #A8A8A8",
"8@	c #C8C8C8",
"9@	c #777777",
"0@	c #5A5A5A",
"a@	c #0B4549",
"b@	c #00EAFF",
"c@	c #00E7FF",
"d@	c #00E4FF",
"e@	c #00E1FF",
"f@	c #00D5F0",
"g@	c #00B8CD",
"h@	c #009CAC",
"i@	c #00808B",
"j@	c #04636A",
"k@	c #0C484B",
"l@	c #0D2C2D",
"m@	c #081212",
"n@	c #0D1717",
"o@	c #374747",
"p@	c #777A7A",
"q@	c #B4B4B4",
"r@	c #162021",
"s@	c #00B0BD",
"t@	c #00EBFF",
"u@	c #00E8FF",
"v@	c #00E5FF",
"w@	c #00E2FF",
"x@	c #00EEFF",
"y@	c #00F1FF",
"z@	c #00F4FF",
"A@	c #00E6EE",
"B@	c #00AEB2",
"C@	c #037374",
"D@	c #0B2929",
"E@	c #293434",
"F@	c #091717",
"G@	c #00CAD8",
"H@	c #00ECFF",
"I@	c #00E9FF",
"J@	c #00F7FF",
"K@	c #00FAFF",
"L@	c #00FBFE",
"M@	c #037B7C",
"N@	c #323E3E",
"O@	c #969898",
"P@	c #091414",
"Q@	c #01A0AA",
"R@	c #00EDFF",
"S@	c #00FAFC",
"T@	c #040808",
"U@	c #BABABA",
"V@	c #293535",
"W@	c #0B2223",
"X@	c #04767E",
"Y@	c #00AFBE",
"Z@	c #00D2E7",
"`@	c #00CCF2",
" #	c #00BEE3",
".#	c #00AFD4",
"+#	c #00A1C6",
"@#	c #0092B7",
"##	c #0086AA",
"$#	c #007799",
"%#	c #006B8B",
"&#	c #006687",
"*#	c #006E95",
"=#	c #006F99",
"-#	c #007BAB",
";#	c #0087BF",
">#	c #0093D3",
",#	c #009FE7",
"'#	c #00EFFF",
")#	c #00F2FF",
"!#	c #00E4E9",
"~#	c #070E0E",
"{#	c #D3D3D3",
"]#	c #656868",
"^#	c #273435",
"/#	c #04090A",
"(#	c #071011",
"_#	c #000101",
":#	c #070B0C",
"<#	c #10181A",
"[#	c #1C2628",
"}#	c #283336",
"|#	c #364144",
"1#	c #454E51",
"2#	c #565E61",
"3#	c #656B6D",
"4#	c #5C6263",
"5#	c #4C575B",
"6#	c #344146",
"7#	c #1C272B",
"8#	c #0A1012",
"9#	c #050B0E",
"0#	c #0C2632",
"a#	c #093E57",
"b#	c #005A86",
"c#	c #0079B4",
"d#	c #0096E3",
"e#	c #00EAF4",
"f#	c #094748",
"g#	c #5E6666",
"h#	c #3C3C3C",
"i#	c #656A6C",
"j#	c #303B40",
"k#	c #0B1012",
"l#	c #070E12",
"m#	c #103141",
"n#	c #084E70",
"o#	c #00679A",
"p#	c #0082C4",
"q#	c #009EEE",
"r#	c #00D0E0",
"s#	c #037F87",
"t#	c #0B1E1F",
"u#	c #565F5F",
"v#	c #484848",
"w#	c #535353",
"x#	c #808080",
"y#	c #555A5D",
"z#	c #293337",
"A#	c #0A1418",
"B#	c #103242",
"C#	c #0C4865",
"D#	c #04567E",
"E#	c #006493",
"F#	c #0074A9",
"G#	c #0079B0",
"H#	c #0082BB",
"I#	c #008CC8",
"J#	c #0090CC",
"K#	c #0093CE",
"L#	c #009FDD",
"M#	c #00A1DD",
"N#	c #00A8E4",
"O#	c #00B1EE",
"P#	c #00B3EE",
"Q#	c #00BEFA",
"R#	c #00C8F2",
"S#	c #00C8EE",
"T#	c #00C4E6",
"U#	c #00B2CF",
"V#	c #009EB5",
"W#	c #008C9F",
"X#	c #027684",
"Y#	c #0E5259",
"Z#	c #0D2527",
"`#	c #0C1414",
" $	c #525A5B",
".$	c #BCBCBC",
"+$	c #393939",
"@$	c #DDDDDD",
"#$	c #999999",
"$$	c #616466",
"%$	c #454D51",
"&$	c #3B464A",
"*$	c #2F3C41",
"=$	c #232F34",
"-$	c #202C31",
";$	c #1F2A2F",
">$	c #151E21",
",$	c #141D21",
"'$	c #0F171A",
")$	c #0A0F10",
"!$	c #030405",
"~$	c #0E1617",
"{$	c #1F2A2C",
"]$	c #384345",
"^$	c #51595A",
"/$	c #707171",
"($	c #989898",
"_$	c #CCCCCC",
":$	c #383838",
"<$	c #1B1B1B",
"[$	c #A4A4A4",
"}$	c #4A4A4A",
"|$	c #0B0B0B",
"1$	c #676767",
"2$	c #030303",
"3$	c #272727",
"4$	c #4D4D4D",
"5$	c #A5A5A5",
"6$	c #232323",
"7$	c #050505",
"8$	c #454545",
"9$	c #606060",
"0$	c #959595",
"a$	c #AEAEAE",
"b$	c #171717",
"c$	c #444444",
"d$	c #ADADAD",
"e$	c #848484",
"f$	c #202020",
"g$	c #CFCFCF",
"h$	c #616161",
"i$	c #101010",
"j$	c #C4C4C4",
"k$	c #131313",
"l$	c #4F4F4F",
"m$	c #040404",
"n$	c #3D3D3D",
"o$	c #A7A7A7",
"p$	c #5F5F5F",
"q$	c #0D0D0D",
"r$	c #838383",
"                                                                                                                                                                                                        ",
"                                                                                                                                                                                                        ",
"                                                                                                        . +                                                                                             ",
"                                                                                                        @ # $ %                                                                                         ",
"                                                                                                        @ & & * =                                                                                       ",
"                                                                                                        @ - ; > , ' )                                                                                   ",
"                                                                                                        ! ~       { ] !                                                                                 ",
"                                                                            ^ / / / / / / / ( _                     : < [                                                                               ",
"                                                                            } | 1 2 3 4 5 6 7 8 9                       0 a                                                                             ",
"                                                                            b c d e f g h i j k l m n                   o p n                                                                           ",
"                                                                            q r s t u d v f g h i w x y                   z A                                                                           ",
"                                B C C C C C C C D E E E F G G H I I I I I I J K L M N O t u d e P Q R S {                 T U                                                                           ",
"                                V W X Y Z ` `  .....+.+.@.#.#.#.#.#.$.$.$.%.%.&.*.=.-.;.M N O t u d f >.,.'.                ).!.                                                                        ",
"              ~.              {.].^.;.-.*./.(._.:.<.[.}.|.|.1.1.1.1.1.|.|.}.[.<.:.2.(.3.*.-.;.M N s 4.5.6.7.8.              ; ~                     9.                                                  ",
"              0.; a.          b.c.L d.=.3.(._.:.[.}.1.e.f.g.g.h.h.h.h.h.g.g.f.e.1.|.[.<._.(.3.=.d.L i.O t j.k.l.m.          n.^                     o.0.>                                               ",
"              p.& q.r.      s.t.u.L d.*./.2.:.[.|.1.f.g.v.w.x.x.y.y.y.y.y.y.x.w.v.h.f.e.|.}.<._.(.3.-.;.M O t z.A.B.        T o                     C.& D.E.F.G.                                        ",
"              H.& p.I.      J.K.N L d.*./.2.:.}.1.f.g.v.x.y.L.M.N.O.O.P.P.O.O.N.M.L.y.w.v.g.e.|.[.:.2.3.=.d.M N Q.R.S.                              C.T.U.C V.o.W.V.                                    ",
"              X.Y.          Z.`.N M d.=./.2.<.}.1.f.h.w.y.M.O.P. +.+++++@+@+++++.+ +P.N.M.y.w.h.f.1.}.<.2./.=.d.M #+$+%+&+                          *+=+        ~.< o.-+                                ",
"              ;+>+        ,+'+4.s i.;.-.3.2.:.}.1.g.v.x.L.N.P..+++)+!+~+~+{+{+{+~+!+)+@+.+ +O.M.y.v.g.e.}.<.2./.=.;.M ]+^+/+                                        (+_+                                ",
"              a .         :+<+5.t N M d.*.(._.[.1.f.v.x.L.O. +++)+~+{+[+}+}+|+|+|+}+[+1+{+!+@+.+P.N.y.w.g.e.}.<.2.3.=.;.2+3+4+5+                                      6+7+                              ",
"              8+9+        0+a+v u s i.;.-.3.2.<.}.e.h.w.L.N. +++!+{+[+|+b+c+d+e+e+e+d+c+b+}+1+~+)+++P.N.y.w.g.e.}.:.(.3.-.f+g+h+i+                                      j+;+                            ",
"              k+l+        m+n+f d 4.O i.;.=./._.[.1.f.v.y.N.P.++)+{+[+|+d+e+o+p+q+q+q+p+o+e+d+b+[+{+!+++P.N.y.v.g.1.[._./.=.d.r+s+t+u+                                  s.v+                            ",
"              w+x+        y+z+Q f d 4.O M d.*.(.:.[.1.g.w.L.O. +@+~+[+|+d+A+p+B+C+D+D+D+C+E+q+o+e+b+}+{+)+.+P.M.x.h.e.}.<.2.3.-.F+G+H+I+                                  n.J+                          ",
"              K+L+        M+N+O+Q f d 4.O M d.*.(.:.}.e.h.x.M.O..+)+{+}+c+e+p+E+D+P+Q+Q+Q+R+S+C+B+o+d+b+[+~+@+ +N.y.w.g.1.[._./.=.;.T+U+V+W+u+                                                          ",
"              X+*+        Y+Z+`+i Q f d 4.O M d.*.(.:.}.e.h.x.M.P.++!+1+|+c+A+q+C+P+Q+ @.@.@ @Q+P+C+q+A+c+}+{+)+.+O.M.x.h.e.}.:.(.*.d.M +@@@#@$@+ !.                                                    ",
"              5+U.        %@&@Z+`+i Q f d 4.O M d.*.(.:.}.e.h.x.M.P.++!+1+}+c+A+q+C+P+*@.@=@-@;@>@R+D+B+o+d+|+1+!+++P.M.x.h.e.}.:.(.*.d.M N ,@'@)@!@~@{@]@y                                             ",
"                ^@/@      (@_@:@Z+`+i Q f d u s i.;.=./._.[.1.g.w.L.O..+)+{+}+c+A+q+E+S+Q+ @;@;@.@*@R+D+B+o+d+|+1+!+++P.M.x.v.f.|.<.2.3.-.L N t 5.<@[@}@|@1@2@3@4@5@6@7@8@                              ",
"                9@0@      ^ a@b@c@d@e@j h P v u s i.;.=.3.2.<.|.f.v.y.N. +@+~+1+|+d+o+q+C+S+R+*@*@Q+R+S+E+q+A+c+|+1+!+++P.M.x.h.e.|.<.2.3.-.L N t 5.e g O+N+f@g@h@i@j@k@l@m@n@o@p@q@                    ",
"                  U./@      r@s@t@u@v@w@N+O+g e 5.t N L d.*.(.:.}.e.h.x.M.O..+)+{+[+b+d+o+q+E+C+S+S+S+D+E+q+o+d+b+[+{+)+.+O.M.x.h.e.}.:.(.*.-.L N t 5.e g O+N+w@v@u@t@x@y@z@A@B@C@D@E@u+                ",
"                            {.F@G@H@I@:@Z+`+i Q f d 4.s i.;.=./._.[.|.f.v.y.M.P.++)+{+[+b+d+A+o+q+q+B+B+q+p+A+d+b+}+1+!+@+ +N.L.w.g.1.[.:.(.*.d.M O 4.d e g O+N+w@v@u@t@x@y@z@J@K@L@M@N@                ",
"                              O@P@Q@R@b@c@d@e@j O+g e 5.t N L d.*.(.:.}.1.g.w.y.N.P.++)+~+1+}+b+c+e+e+A+e+e+d+c+|+[+{+!+@+.+O.M.x.h.f.|.<._./.=.;.i.O 4.d f Q i `+Z+v@u@t@x@y@z@J@K@S@T@                ",
"                                U@V@W@X@Y@Z@:@Z+`+i Q `@ #.#+#@###$#%#&#+.*#=#-#;#>#,#P..+@+!+{+1+[+}+|+|+|+|+}+[+1+~+!+@+.+O.M.y.v.g.1.}.:.(.3.-.L N s u v P h i `+Z+:@I@H@'#)#z@J@!#~#                ",
"                      (+{#          m.]#^#%@& /#(#(#_#:#<#[#}#|#1#2#3#E E 4#G 5#6#7#8#9#0#a#b#c#d#)+!+~+{+{+{+{+~+~+)+@+++ +O.M.y.w.g.e.}.<.2./.=.d.M O 4.5.e g O+j e@d@c@b@H@'#)#e#f#g#                ",
"                      l+h#                                                              J+^ i#j#k#l#m#n#o#p#q#@+@+@+++.+ +O.N.L.x.v.g.e.|.<._.(.*.-.L N s u v f Q i N+w@v@u@t@r#s#t#u#                  ",
"                        v#w#                                                                      !.~ x#y#z#k#A#B#C#D#E#F#G#H#I#J#K#L#M#N#O#P#Q#*.-.;.i.O 4.R#S#T#U#V#W#X#Y#Z#`# $.$                    ",
"                          C.+$@$          ;+                                                                    U@#$x#$$%$&$*$=$-$;$>$,$'$)$)$!$& & & & & & :#)$~${$]$^$/$($_$                          ",
"                            r.).6@        :$<$C                                                                   [$                                                                                    ",
"                              y }$|$v#1$C X.& 2$3${#                                                            . 4$                                                    @$o.                            ",
"                                    5$6@x#6$7$+$,+                                                            } $                                                       u+X.                            ",
"                                          8$I.                                                              9$3$n                                                       0$@                             ",
"                                                                                                        : h#o.                                          1$a$          .$W.&+                            ",
"                                                                                                      b b$>                                             c$|$< _$  d$F.W.)                               ",
"                                                                                    q r.          e$f$v#g$                                              c$& & & |$0 V.                                  ",
"                                                                                    8+D.0.h$} c$i$[ j$                                                  c$k$l$u+                                        ",
"                                                                                    8+& & m$n$o$                                                        p$X+                                            ",
"                                                                                    8+q$< q@                                                                                                            ",
"                                                                                    #$r$                                                                                                                ",
"                                                                                                                                                                                                        ",
"                                                                                                                                                                                                        ",
"                                                                                                                                                                                                        "};
