/* XPM */
static char * ButtonL_xpm[] = {
"50 50 171 2",
"  	c None",
". 	c #B8B8B8",
"+ 	c #878787",
"@ 	c #BCBCBC",
"# 	c #1E2C26",
"$ 	c #044124",
"% 	c #05542E",
"& 	c #066E3D",
"* 	c #076F3D",
"= 	c #066638",
"- 	c #044727",
"; 	c #293730",
"> 	c #56635D",
", 	c #121E18",
"' 	c #0F1914",
") 	c #050C09",
"! 	c #0F3423",
"~ 	c #029A52",
"{ 	c #01FF87",
"] 	c #01C468",
"^ 	c #076A3B",
"/ 	c #0D281B",
"( 	c #010302",
"_ 	c #050907",
": 	c #0C1410",
"< 	c #5E6964",
"[ 	c #E6E6E6",
"} 	c #26322C",
"| 	c #0A472A",
"1 	c #01FB85",
"2 	c #08713F",
"3 	c #848584",
"4 	c #C2C2C2",
"5 	c #2A3631",
"6 	c #01B05D",
"7 	c #049651",
"8 	c #28332E",
"9 	c #E0E0E0",
"0 	c #959595",
"a 	c #0C4F2F",
"b 	c #0E3623",
"c 	c #B7B7B7",
"d 	c #CACACA",
"e 	c #0D261A",
"f 	c #01F883",
"g 	c #040907",
"h 	c #E7E7E7",
"i 	c #DBDBDB",
"j 	c #0A1711",
"k 	c #01E87B",
"l 	c #0D1713",
"m 	c #01DF76",
"n 	c #15221C",
"o 	c #060C09",
"p 	c #01F783",
"q 	c #01D571",
"r 	c #1D2D26",
"s 	c #070E0B",
"t 	c #01F180",
"u 	c #01CE6D",
"v 	c #21312A",
"w 	c #202F28",
"x 	c #212B26",
"y 	c #3A4740",
"z 	c #777A79",
"A 	c #074327",
"B 	c #070D0A",
"C 	c #E9E9E9",
"D 	c #0C1511",
"E 	c #00773F",
"F 	c #44504A",
"G 	c #868887",
"H 	c #0A4F2F",
"I 	c #0D5031",
"J 	c #9B9B9B",
"K 	c #DFDFDF",
"L 	c #0F1A15",
"M 	c #01C267",
"N 	c #070F0B",
"O 	c #E2E2E2",
"P 	c #050A08",
"Q 	c #01F984",
"R 	c #01D16F",
"S 	c #213129",
"T 	c #48534E",
"U 	c #077742",
"V 	c #01AE5C",
"W 	c #34423B",
"X 	c #040806",
"Y 	c #01DD75",
"Z 	c #16241D",
"` 	c #989898",
" .	c #0B2C1D",
"..	c #0A5B35",
"+.	c #8D8D8D",
"@.	c #DEDEDE",
"#.	c #08130D",
"$.	c #01EC7D",
"%.	c #0A110E",
"&.	c #919392",
"*.	c #091811",
"=.	c #01D470",
"-.	c #01FA84",
";.	c #07120D",
">.	c #D8D8D8",
",.	c #C8C8C8",
"'.	c #0C2218",
").	c #0B1F16",
"!.	c #676D6A",
"~.	c #091F15",
"{.	c #01DA73",
"].	c #01B962",
"^.	c #27352E",
"/.	c #8C8C8C",
"(.	c #0A6239",
"_.	c #077D45",
":.	c #D6D6D6",
"<.	c #D5D5D5",
"[.	c #A5A5A5",
"}.	c #6B706E",
"|.	c #0B1410",
"1.	c #086338",
"2.	c #08683A",
"3.	c #7D7F7F",
"4.	c #CCCCCC",
"5.	c #16211B",
"6.	c #01B660",
"7.	c #05884B",
"8.	c #07110C",
"9.	c #1A2822",
"0.	c #1F2E27",
"a.	c #24342C",
"b.	c #25352D",
"c.	c #22312A",
"d.	c #1A2721",
"e.	c #121D18",
"f.	c #0B130F",
"g.	c #0B1E15",
"h.	c #0D4F30",
"i.	c #028245",
"j.	c #01D872",
"k.	c #01FD86",
"l.	c #091710",
"m.	c #E1E1E1",
"n.	c #B4B4B4",
"o.	c #838383",
"p.	c #029851",
"q.	c #01EE7E",
"r.	c #01DC74",
"s.	c #01CF6E",
"t.	c #01C96A",
"u.	c #01C769",
"v.	c #01CB6B",
"w.	c #01E077",
"x.	c #01EA7C",
"y.	c #01F582",
"z.	c #01C568",
"A.	c #1B2621",
"B.	c #36433D",
"C.	c #050D09",
"D.	c #08140E",
"E.	c #0F3D27",
"F.	c #086F3E",
"G.	c #01C367",
"H.	c #05733F",
"I.	c #6E7170",
"J.	c #27342E",
"K.	c #0C3321",
"L.	c #0F3E28",
"M.	c #07100C",
"N.	c #BEBEBE",
"        . + + + + + + + + + + + + + + + + + + + + + @                                               ",
"        # $ % & * * * * * * * * * * * * * * * * = - ;                                               ",
"        > , ' ) ! ~ { { { { { { { { { { ] ^ / ( _ : <                                               ",
"              [ . } | 1 { { { { { { { 2 ' 3 4                                                       ",
"                    5 6 { { { { { { 7 8 9                                                           ",
"                    0 a { { { { { { b c                                                             ",
"                    d e { { { { { f g h                                                             ",
"                    i j { { { { { k l                                                               ",
"                      g { { { { { m n                                                               ",
"                      o p { { { { q r                                                               ",
"                      s t { { { { u v                                                               ",
"                      s t { { { { u w                                                               ",
"                      s t { { { { u w                                                               ",
"                      s t { { { { u w                                                               ",
"                      s t { { { { u w                                                               ",
"                      s t { { { { u w                                                               ",
"                      s t { { { { u w                                                               ",
"                      s t { { { { u w                                                               ",
"                      s t { { { { u w                                                               ",
"                      s t { { { { u w                                                               ",
"                      s t { { { { u w                                                               ",
"                      s t { { { { u w                                                               ",
"                      s t { { { { u w                                                               ",
"                      s t { { { { u w                                                               ",
"                      s t { { { { u w                                                               ",
"                      s t { { { { u w                                                               ",
"                      s t { { { { u w                                                               ",
"                      s t { { { { u w                                                               ",
"                      s t { { { { u w                                                               ",
"                      s t { { { { u w                                                               ",
"                      s t { { { { u w                                                               ",
"                      s t { { { { u w                                                               ",
"                      s t { { { { u w                                                               ",
"                      s t { { { { u w                                                               ",
"                      s t { { { { u w                                                               ",
"                      s t { { { { u w                                                 9 x y         ",
"                      s t { { { { u w                                                 z A B C       ",
"                      s t { { { { u w                                               h D E F         ",
"                      s t { { { { u w                                               G H I J         ",
"                      s t { { { { u w                                             K L M N O         ",
"                      P Q { { { { R S                                             T U V W           ",
"                      X { { { { { Y Z                                           `  .Q ..+.          ",
"                    @.#.{ { { { { $.%.                                        &.*.=.-.;.>.          ",
"                    ,.'.{ { { { { { ).d                                   O !.~.{.{ ].^.            ",
"                    /.(.{ { { { { { _.8 :.                          <.[.}.|.1.k { { 2.3.            ",
"                  4.5.6.{ { { { { { { 7.8.|.n 9.0.a.b.b.b.c.d.e.f._ g.h.i.j.{ { { k.l.d             ",
"          m.i n.o.: p.{ { { { { { { { { { q.r.q s.t.u.u.u.v.q w.x.y.{ { { { { { { z.A.              ",
"        B.C.D.E.F.G.{ { { { { { { { { { { { { { { { { { { { { { { { { { { { { { { H.I.              ",
"        J.K.L.L.L.L.L.L.L.L.L.L.L.L.L.L.L.L.L.L.L.L.L.L.L.L.L.L.L.L.L.L.L.L.L.L.L.M.N.              ",
"        :.n.n.n.n.n.n.n.n.n.n.n.n.n.n.n.n.n.n.n.n.n.n.n.n.n.n.n.n.n.n.n.n.n.n.n.n.4                 "};
