/* XPM */
static char * ButtonLR_xpm[] = {
"50 50 392 2",
"  	c None",
". 	c #A8A8A8",
"+ 	c #A5A5A5",
"@ 	c #A7A7A7",
"# 	c #9A9A9A",
"$ 	c #000000",
"% 	c #010302",
"& 	c #072718",
"* 	c #0D4A2D",
"= 	c #0E4E30",
"- 	c #0D482C",
"; 	c #062013",
"> 	c #03120B",
", 	c #010403",
"' 	c #939393",
") 	c #CFCFCF",
"! 	c #414E48",
"~ 	c #384740",
"{ 	c #192721",
"] 	c #08150E",
"^ 	c #01A557",
"/ 	c #01FF87",
"( 	c #01F481",
"_ 	c #0B5A35",
": 	c #060E0A",
"< 	c #1C2A24",
"[ 	c #2B3A33",
"} 	c #394740",
"| 	c #C8C8C8",
"1 	c #C1C1C1",
"2 	c #131D18",
"3 	c #01BF65",
"4 	c #01F07F",
"5 	c #0B3722",
"6 	c #4F5753",
"7 	c #858786",
"8 	c #0A5F37",
"9 	c #018E4B",
"0 	c #474D4B",
"a 	c #BDBDBD",
"b 	c #0F3422",
"c 	c #0C5734",
"d 	c #969696",
"e 	c #D1D1D1",
"f 	c #0C2318",
"g 	c #0F472D",
"h 	c #ADADAD",
"i 	c #08130D",
"j 	c #103E28",
"k 	c #B9B9B9",
"l 	c #060F0B",
"m 	c #0F3222",
"n 	c #C3C3C3",
"o 	c #0E2F20",
"p 	c #C7C7C7",
"q 	c #A9A9A9",
"r 	c #B3B3B3",
"s 	c #D2D2D2",
"t 	c #1C1512",
"u 	c #120703",
"v 	c #3D170B",
"w 	c #4E1D0E",
"x 	c #511F10",
"y 	c #471D10",
"z 	c #3C1A10",
"A 	c #31170F",
"B 	c #25120D",
"C 	c #110907",
"D 	c #1D1411",
"E 	c #100703",
"F 	c #037C41",
"G 	c #01D26F",
"H 	c #7A7370",
"I 	c #4B403C",
"J 	c #382C28",
"K 	c #100B09",
"L 	c #551B09",
"M 	c #EB3801",
"N 	c #FF3D01",
"O 	c #F93C01",
"P 	c #DB3401",
"Q 	c #C73001",
"R 	c #EC3801",
"S 	c #E13601",
"T 	c #B22B01",
"U 	c #792102",
"V 	c #100E05",
"W 	c #0C4322",
"X 	c #01C86A",
"Y 	c #65615F",
"Z 	c #451A0C",
"` 	c #D63301",
" .	c #39170D",
"..	c #190D0A",
"+.	c #070403",
"@.	c #221815",
"#.	c #332724",
"$.	c #110B0A",
"%.	c #170C09",
"&.	c #451A0D",
"*.	c #BD2D01",
"=.	c #F83B01",
"-.	c #972501",
";.	c #100F06",
">.	c #0B1C13",
",.	c #150E0C",
"'.	c #E43701",
").	c #A02601",
"!.	c #48413F",
"~.	c #D6D6D6",
"{.	c #D9D9D9",
"].	c #A0A0A0",
"^.	c #1F1614",
"/.	c #671F08",
"(.	c #F23A01",
"_.	c #DF3501",
":.	c #1C0801",
"<.	c #64605F",
"[.	c #3E322F",
"}.	c #BC2D01",
"|.	c #5A514E",
"1.	c #605A58",
"2.	c #290A01",
"3.	c #FB3C01",
"4.	c #EA3801",
"5.	c #26110A",
"6.	c #4E4340",
"7.	c #AB2901",
"8.	c #0C0603",
"9.	c #832303",
"0.	c #261D1B",
"a.	c #5E5553",
"b.	c #9B2501",
"c.	c #050D0A",
"d.	c #0A0E06",
"e.	c #DC3501",
"f.	c #4F1B0B",
"g.	c #8F8E8D",
"h.	c #625B59",
"i.	c #972401",
"j.	c #095F31",
"k.	c #922301",
"l.	c #A92801",
"m.	c #554B48",
"n.	c #01954F",
"o.	c #5D2006",
"p.	c #D43301",
"q.	c #2D221F",
"r.	c #01C468",
"s.	c #2C1B09",
"t.	c #FA3C01",
"u.	c #0A0605",
"v.	c #01D571",
"w.	c #201808",
"x.	c #E23601",
"y.	c #1D1512",
"z.	c #01B560",
"A.	c #381D08",
"B.	c #B32B01",
"C.	c #473D39",
"D.	c #076A37",
"E.	c #832202",
"F.	c #802003",
"G.	c #716F6E",
"H.	c #0A0F07",
"I.	c #DE3501",
"J.	c #170D09",
"K.	c #C5C5C5",
"L.	c #0B0603",
"M.	c #702204",
"N.	c #5E1B06",
"O.	c #6C6665",
"P.	c #4F4947",
"Q.	c #3C0F01",
"R.	c #A92901",
"S.	c #19110E",
"T.	c #D5D5D5",
"U.	c #8A8A8A",
"V.	c #9B9B9B",
"W.	c #201816",
"X.	c #5B1C09",
"Y.	c #F63B01",
"Z.	c #FC3C01",
"`.	c #0B0602",
" +	c #9F9F9F",
".+	c #414D47",
"++	c #000101",
"@+	c #989898",
"#+	c #413A38",
"$+	c #ACACAC",
"%+	c #919191",
"&+	c #767473",
"*+	c #4A3F3C",
"=+	c #120C0A",
"-+	c #42190C",
";+	c #B62C01",
">+	c #241607",
",+	c #0A3B1E",
"'+	c #0C291C",
")+	c #C9C9C9",
"!+	c #050D09",
"~+	c #4D1C0D",
"{+	c #471C0F",
"]+	c #531E0D",
"^+	c #631F0A",
"/+	c #7E2003",
"(+	c #B02A01",
"_+	c #E63701",
":+	c #531501",
"<+	c #0D0C05",
"[+	c #0D381C",
"}+	c #01B25E",
"|+	c #4D5752",
"1+	c #024B28",
"2+	c #24332C",
"3+	c #711F06",
"4+	c #771F04",
"5+	c #721F06",
"6+	c #6B1F08",
"7+	c #BC2E01",
"8+	c #1A0C08",
"9+	c #030704",
"0+	c #01E177",
"a+	c #0F3221",
"b+	c #AEAEAE",
"c+	c #091E15",
"d+	c #066236",
"e+	c #7B7D7C",
"f+	c #302C2A",
"g+	c #808080",
"h+	c #858585",
"i+	c #150C0A",
"j+	c #0C0502",
"k+	c #01F280",
"l+	c #0F5333",
"m+	c #121D18",
"n+	c #01BE65",
"o+	c #0A1D14",
"p+	c #8A8887",
"q+	c #37160B",
"r+	c #621801",
"s+	c #0B552C",
"t+	c #077742",
"u+	c #848484",
"v+	c #1C2823",
"w+	c #068348",
"x+	c #01CB6B",
"y+	c #18251F",
"z+	c #48403D",
"A+	c #7B2106",
"B+	c #201306",
"C+	c #02A356",
"D+	c #019C53",
"E+	c #3E4642",
"F+	c #777A79",
"G+	c #0B1510",
"H+	c #039550",
"I+	c #047941",
"J+	c #6A706D",
"K+	c #DDDDDD",
"L+	c #1B1311",
"M+	c #BF2E01",
"N+	c #D23201",
"O+	c #0B0E06",
"P+	c #01DD75",
"Q+	c #01F381",
"R+	c #0B492C",
"S+	c #101A15",
"T+	c #23322B",
"U+	c #34433C",
"V+	c #45534C",
"W+	c #57605C",
"X+	c #59625E",
"Y+	c #535E59",
"Z+	c #46544D",
"`+	c #3A4942",
" @	c #2E3D36",
".@	c #0D1612",
"+@	c #0A1A13",
"@@	c #0A6038",
"#@	c #01DE76",
"$@	c #0B271A",
"%@	c #BABABA",
"&@	c #B7B7B7",
"*@	c #180A05",
"=@	c #ED3901",
"-@	c #912502",
";@	c #0C2E17",
">@	c #01FB85",
",@	c #01FE86",
"'@	c #01DA73",
")@	c #01B761",
"!@	c #01A658",
"~@	c #019951",
"{@	c #019750",
"]@	c #019B52",
"^@	c #01B15E",
"/@	c #01E97B",
"(@	c #01D671",
"_@	c #0E1713",
":@	c #9E9E9E",
"<@	c #010704",
"[@	c #08180D",
"}@	c #461503",
"|@	c #421804",
"1@	c #07572E",
"2@	c #016B39",
"3@	c #58615D",
"4@	c #313F38",
"5@	c #2C3C35",
"6@	c #2B3B34",
"7@	c #130C09",
"8@	c #952401",
"9@	c #130602",
"0@	c #212C27",
"a@	c #CECECE",
"b@	c #150D0B",
"c@	c #D53301",
"d@	c #BA2C01",
"e@	c #1B1411",
"f@	c #989897",
"g@	c #2C130B",
"h@	c #F73B01",
"i@	c #742107",
"j@	c #4A4340",
"k@	c #564F4D",
"l@	c #6C1F08",
"m@	c #32140B",
"n@	c #8C8A8A",
"o@	c #A12701",
"p@	c #59504D",
"q@	c #211916",
"r@	c #DD3501",
"s@	c #170D0A",
"t@	c #4C413E",
"u@	c #BCBCBC",
"v@	c #180D0A",
"w@	c #D8D8D8",
"x@	c #AD2901",
"y@	c #C32F01",
"z@	c #3C302D",
"A@	c #7E7A79",
"B@	c #42180B",
"C@	c #FE3D01",
"D@	c #8B2504",
"E@	c #332A28",
"F@	c #2B211E",
"G@	c #C83001",
"H@	c #3E3532",
"I@	c #882404",
"J@	c #722007",
"K@	c #2C2321",
"L@	c #FD3D01",
"M@	c #2C140D",
"N@	c #D7D7D7",
"O@	c #17100D",
"P@	c #CA3001",
"Q@	c #8D2404",
"R@	c #1D1412",
"S@	c #908F8F",
"T@	c #B4B4B4",
"U@	c #666160",
"V@	c #150B08",
"W@	c #B72C01",
"X@	c #150C09",
"Y@	c #6B6867",
"Z@	c #CCCCCC",
"`@	c #A6A6A6",
" #	c #23100A",
".#	c #4E1B0B",
"+#	c #140E0C",
"@#	c #4F4542",
"##	c #807F7F",
"$#	c #C0C0C0",
"%#	c #1F1715",
"&#	c #1C0904",
"*#	c #4B1201",
"=#	c #9D2601",
"-#	c #A22701",
";#	c #411001",
">#	c #190904",
",#	c #0E0A09",
"'#	c #635D5B",
")#	c #561B09",
"!#	c #9E2601",
"~#	c #661800",
"{#	c #350F03",
"]#	c #0D0908",
"^#	c #6C6361",
"/#	c #3C302C",
"(#	c #605754",
"_#	c #544B48",
"                                  . + + + + + + + + + + + + + + + @                                 ",
"                                # $ % & * = = = = = = = = = - ; > , '                               ",
"                                ) ! ~ { ] ^ / / / / / / ( _ : < [ } |                               ",
"                                        1 2 3 / / / / 4 5 6                                         ",
"                                          7 8 / / / / 9 0                                           ",
"                                          a b / / / / c d                                           ",
"                                          e f / / / / g h                                           ",
"                                            i / / / / j k                                           ",
"                                            l / / / / m n                                           ",
"                                            l / / / / o n                                           ",
"                                            l / / / / o n                                           ",
"  p + + + + + + + + + + + + + q r a | s     l / / / / o n                                           ",
"  t $ u v w w w w w w w w w w x y z A B C D E F G / / o n                                           ",
"  H I J K L M N N N N N N N O P Q R N N N S T U V W X o n                                           ",
"          Y Z N N N N `  ...+.@.#.$.%.&.*.N N N =.-.;.>.n                                           ",
"            ,.'.N N N ).!.~.        {.].^./.(.N N N _.:.<.                                          ",
"            [.}.N N N ).|.                1.2.3.N N N 4.5.h                                         ",
"            6.7.N N N ).|.                  8.9.N N N N *.0.                                        ",
"            a.b.N N N ).|.                  c.d.e.N N N N f.g.                                      ",
"            h.i.N N N ).|.                  l j.k.N N N N l.m.                                      ",
"            h.i.N N N ).|.                  l n.o.N N N N p.q.                                      ",
"            h.i.N N N ).|.                  l r.s.N N N N t.u.                                      ",
"            h.i.N N N ).|.                  l v.w.N N N N x.y.                                      ",
"            h.i.N N N ).|.                  l z.A.N N N N B.C.                                      ",
"            h.i.N N N ).|.                  l D.E.N N N N F.G.                                      ",
"            h.i.N N N ).|.                  : H.I.N N N R J.K.                                      ",
"            h.i.N N N ).|.                  L.M.N N N N N.O.                                        ",
"            h.i.N N N ).|.                P.Q.O N N N R.S.                                    T.U.  ",
"            h.i.N N N ).|.            V.W.X.Y.N N Z.9.`. +                                    .+++@+",
"            h.i.N N N ).#+$+].%+&+*+=+-+;+N N t.l.>+,+'+n                                   )+] !+~.",
"            h.i.N N N e.~+{+]+^+/+(+_+N N T :+<+[+}+/ o n                                   |+1+2+  ",
"            h.i.N N N _+3+4+5+6+7+N N N N 8+9+0+/ / / a+1                                 b+c+d+e+  ",
"            h.i.N N N ).f+g+h+h+i+I.N N N (+j+k+/ / / l+@                                 m+n+o+|   ",
"            h.i.N N N ).|.      p+q+3.N N N r+s+/ / / t+u+                            T.v+w+x+y+    ",
"            h.i.N N N ).|.        z+A+N N N Y.B+C+/ / D+E+                        ~.F+G+H+/ I+J+    ",
"            h.i.N N N ).|.        K+L+M+N N N N+O+P+/ Q+R+S+T+U+V+W+X+X+Y+Z+`+ @.@+@@@#@/ / $@%@    ",
"            h.i.N N N ).|.        &@g+*@=@N N N -@;@>@/ ,@'@X )@!@~@{@{@]@!@^@n+/@/ / / / (@_@      ",
"            h.i.N N N ).|.      :@$ <@[@}@N N N N |@1@3 3 3 3 3 3 3 3 3 3 3 3 3 3 3 3 3 3 2@3@      ",
"            h.i.N N N ).|.      )+4@5@6@7@8@N N N 4.9@0@5@5@5@5@5@5@5@5@5@5@5@5@5@5@5@5@5@4@n       ",
"            h.i.N N N ).|.              a@b@c@N N N d@e@                                            ",
"            h.i.N N N ).|.                f@g@h@N N N i@j@                                          ",
"            h.i.N N N ).|.                  k@l@N N N t.m@n@                                        ",
"            h.i.N N N o@p@                    q@T N N N r@s@%@                                      ",
"            p@).N N N (+t@                    u@v@_+N N N d@L+w@                                    ",
"            t@x@N N N y@z@                      A@B@C@N N N D@E@                                    ",
"            F@G@N N N r@^.                        H@I@N N N N J@K@w@                                ",
"          b+%.L@N N N N M@b+                      N@O@P@N N N N Q@R@S@                              ",
"  e T@V.U@V@M+N N N N N W@X@Y@:@T@Z@                `@ #(.N N N N Q .#+#@###$#                      ",
"  %#$ &#*#=#M+M+M+M+M+M+M+-#;#>#$ ,#                  '#)#M+M+M+M+M+M+!#~#{#]#                      ",
"  ^#/#/#/#/#/#/#/#/#/#/#/#/#/#/#/#(#                    _#/#/#/#/#/#/#/#/#/#(#                      "};
