/* XPM */
static char * Logo_xpm[] = {
"64 64 319 2",
"  	c None",
". 	c #F0F0F0",
"+ 	c #989C9C",
"@ 	c #777F81",
"# 	c #767E7F",
"$ 	c #CECECE",
"% 	c #2C4044",
"& 	c #0098B3",
"* 	c #00A1BB",
"= 	c #00A2BB",
"- 	c #00A4BB",
"; 	c #00A5BB",
"> 	c #00A1B4",
", 	c #15363A",
"' 	c #BDC0C0",
") 	c #35494E",
"! 	c #00C2EB",
"~ 	c #00D4FF",
"{ 	c #00D6FF",
"] 	c #00D8FF",
"^ 	c #00DAFF",
"/ 	c #00DDFF",
"( 	c #00D0EE",
"_ 	c #143E44",
": 	c #9CA1A2",
"< 	c #DEDEDE",
"[ 	c #B0B0B0",
"} 	c #A6A6A6",
"| 	c #A0A0A0",
"1 	c #293538",
"2 	c #00B3E1",
"3 	c #00CDFF",
"4 	c #00CFFF",
"5 	c #00D1FF",
"6 	c #00D3FF",
"7 	c #00D2F4",
"8 	c #13454D",
"9 	c #858D8E",
"0 	c #46575B",
"a 	c #086179",
"b 	c #096D87",
"c 	c #096C87",
"d 	c #096B87",
"e 	c #096A87",
"f 	c #096987",
"g 	c #096787",
"h 	c #096F91",
"i 	c #0A7498",
"j 	c #0A7598",
"k 	c #0A7698",
"l 	c #07799C",
"m 	c #00BBF3",
"n 	c #00C6FF",
"o 	c #00C8FF",
"p 	c #00CAFF",
"q 	c #00CCFF",
"r 	c #00D4FB",
"s 	c #116472",
"t 	c #4A5759",
"u 	c #E8E8E8",
"v 	c #C9C9C9",
"w 	c #13424E",
"x 	c #00C7FF",
"y 	c #00C5FF",
"z 	c #00C3FF",
"A 	c #00C1FF",
"B 	c #00BFFF",
"C 	c #00BDFF",
"D 	c #00BCFF",
"E 	c #00BAFF",
"F 	c #00B9FF",
"G 	c #00BBFF",
"H 	c #00D0FF",
"I 	c #088EA7",
"J 	c #27383B",
"K 	c #D3D3D3",
"L 	c #4A5A5E",
"M 	c #00A2CA",
"N 	c #00C9FF",
"O 	c #00C4FF",
"P 	c #00B8FF",
"Q 	c #00B7FF",
"R 	c #00B5FF",
"S 	c #00B4FF",
"T 	c #00B3FF",
"U 	c #00B6FF",
"V 	c #00BEFF",
"W 	c #01ADD2",
"X 	c #183135",
"Y 	c #AEB0B0",
"Z 	c #E3E3E3",
"` 	c #17363E",
" .	c #00C0FF",
"..	c #00B2FF",
"+.	c #00B0FF",
"@.	c #00AFFF",
"#.	c #00AEFF",
"$.	c #00B1FF",
"%.	c #00C2FF",
"&.	c #00CBFF",
"*.	c #00C1EE",
"=.	c #154954",
"-.	c #667173",
";.	c #EBEBEB",
">.	c #919696",
",.	c #077A92",
"'.	c #00CEFF",
").	c #00ADFF",
"!.	c #00ACFF",
"~.	c #00AAFF",
"{.	c #00A9FF",
"].	c #00A8FF",
"^.	c #00ABFF",
"/.	c #0A809B",
"(.	c #293B3E",
"_.	c #CCCCCC",
":.	c #3B4F53",
"<.	c #00BAE1",
"[.	c #00A7FF",
"}.	c #00A5FF",
"|.	c #00A4FF",
"1.	c #00A3FF",
"2.	c #00B4E1",
"3.	c #163D46",
"4.	c #EEEEEE",
"5.	c #1B3438",
"6.	c #00D2FF",
"7.	c #00A1FF",
"8.	c #009FFF",
"9.	c #009EFF",
"0.	c #009DFF",
"a.	c #00A0FF",
"b.	c #00A2FF",
"c.	c #00C6FA",
"d.	c #10657A",
"e.	c #3E4D50",
"f.	c #E5E5E5",
"g.	c #163E45",
"h.	c #00D9FF",
"i.	c #00D5FF",
"j.	c #009CFF",
"k.	c #009AFF",
"l.	c #0099FF",
"m.	c #0098FF",
"n.	c #009BFF",
"o.	c #049BC2",
"p.	c #1C353A",
"q.	c #919697",
"r.	c #CDCDCD",
"s.	c #15555E",
"t.	c #00DCFF",
"u.	c #0096FF",
"v.	c #0094FF",
"w.	c #0093FF",
"x.	c #0097FF",
"y.	c #00C4F7",
"z.	c #0D697F",
"A.	c #24373C",
"B.	c #A1A4A5",
"C.	c #EFEFEF",
"D.	c #D4D4D4",
"E.	c #175158",
"F.	c #00E0FF",
"G.	c #00A6FF",
"H.	c #0090FF",
"I.	c #008DFF",
"J.	c #00BDEC",
"K.	c #0E6A7E",
"L.	c #1D373C",
"M.	c #5D6D70",
"N.	c #C0C0C0",
"O.	c #ECECEC",
"P.	c #173A3E",
"Q.	c #00E4FF",
"R.	c #00E1FF",
"S.	c #0092FF",
"T.	c #008FFF",
"U.	c #008BFF",
"V.	c #0089FF",
"W.	c #0091FF",
"X.	c #0095FF",
"Y.	c #00CEFD",
"Z.	c #00A0C1",
"`.	c #105865",
" +	c #1A3235",
".+	c #3D5356",
"++	c #7B8384",
"@+	c #B2B2B2",
"#+	c #D8D8D8",
"$+	c #263D3F",
"%+	c #00DCF1",
"&+	c #00E5FF",
"*+	c #008EFF",
"=+	c #00D7FF",
"-+	c #00C1E1",
";+	c #019AB0",
">+	c #12727E",
",+	c #1A5157",
"'+	c #1B3C3F",
")+	c #233D3F",
"!+	c #304546",
"~+	c #506263",
"{+	c #778080",
"]+	c #ACACAC",
"^+	c #E1E1E1",
"/+	c #949A9A",
"(+	c #0E777F",
"_+	c #00EAFF",
":+	c #00E6FF",
"<+	c #00E2FF",
"[+	c #00DEFF",
"}+	c #00DBFF",
"|+	c #00DFFF",
"1+	c #00E3FF",
"2+	c #00E7FF",
"3+	c #00EBFF",
"4+	c #00D9E8",
"5+	c #00C7D2",
"6+	c #00AFB5",
"7+	c #117F81",
"8+	c #184546",
"9+	c #3A4F4F",
"0+	c #374A4B",
"a+	c #05A1AC",
"b+	c #00E8FF",
"c+	c #00EFFF",
"d+	c #00F2FF",
"e+	c #00F6FF",
"f+	c #00FAFF",
"g+	c #01C9CB",
"h+	c #2D4242",
"i+	c #405152",
"j+	c #105F64",
"k+	c #00C7D6",
"l+	c #00E9FF",
"m+	c #00F3FF",
"n+	c #00F7FF",
"o+	c #00FBFF",
"p+	c #173737",
"q+	c #B2B3B3",
"r+	c #45585A",
"s+	c #1F383A",
"t+	c #164246",
"u+	c #154E54",
"v+	c #154D54",
"w+	c #154C54",
"x+	c #174047",
"y+	c #16353B",
"z+	c #1B383D",
"A+	c #20393F",
"B+	c #253B41",
"C+	c #283B41",
"D+	c #2B3C41",
"E+	c #283A40",
"F+	c #20373F",
"G+	c #1A3742",
"H+	c #1A495D",
"I+	c #145C7D",
"J+	c #076C9B",
"K+	c #0083C4",
"L+	c #009DEE",
"M+	c #00ECFF",
"N+	c #00F0FF",
"O+	c #00F4FF",
"P+	c #01B9BF",
"Q+	c #3A5050",
"R+	c #E9E9E9",
"S+	c #DCDCDC",
"T+	c #D0D0D0",
"U+	c #DFDFDF",
"V+	c #EDEDED",
"W+	c #D5D5D5",
"X+	c #B8B8B8",
"Y+	c #989898",
"Z+	c #616B70",
"`+	c #2E3E44",
" @	c #192931",
".@	c #153443",
"+@	c #104E6D",
"@@	c #02679A",
"#@	c #0083C6",
"$@	c #009FF0",
"%@	c #00E0F4",
"&@	c #00B0BD",
"*@	c #125A5E",
"=@	c #344B4C",
"-@	c #DDDDDD",
";@	c #B4B4B4",
">@	c #8C8F90",
",@	c #57666D",
"'@	c #2C3E46",
")@	c #1E343E",
"!@	c #162E39",
"~@	c #153949",
"{@	c #154357",
"]@	c #134C65",
"^@	c #0F5775",
"/@	c #0F5976",
"(@	c #096485",
"_@	c #096687",
":@	c #096887",
"<@	c #097495",
"[@	c #0A7998",
"}@	c #0A7A98",
"|@	c #0A7C98",
"1@	c #0A7D98",
"2@	c #09788F",
"3@	c #097387",
"4@	c #0E6979",
"5@	c #165862",
"6@	c #19464C",
"7@	c #1B393C",
"8@	c #2C4042",
"9@	c #697475",
"0@	c #D9D9D9",
"a@	c #A3A3A3",
"b@	c #ADADAD",
"c@	c #C8C8C8",
"d@	c #E0E0E0",
". . . . . . . . . . . . . . . . . . . . . . . . . . . . . . . . . . . . . . . . . . . . . . . . . . . . . . . . . . . . . . . . ",
". . . . . . . . . . . . . . . . . . . . . . . . . . . . . . . . . . . . . . . . . . . . . . . . . . . . . . . . . . . . . . . . ",
". . . . . . . . . . . . . . . . . . . . . . . . . . . . . . . . . . . . . . . . . . . . . . . . . . . . . . . . . . . . . . . . ",
". . . . . . . . . . . . . . . . . . . . . . . . . . . . . . . . . . . . . . . . . . . . . . . . . . . . . . . . . . . . . . . . ",
". . . . . . . . . . . . . . . . . . . . . . . . . . . . . . . . . . . . . . . . . . . . . . . . . . . . . . . . . . . . . . . . ",
". . . . . . . . . . . . . . . . . . . . . . . . . . . . . . . . . . . . . . . . . . . . . . . . . . . . . . . . . . . . . . . . ",
". . . . . . . . . . . . . . . . . . . . . . . . . . . . . . . . . . . . . . . . . . . . . . . . . . . . . . . . . . . . . . . . ",
". . . . . . . . . . . . . . . . . . . . . . . . . . . . . . . . . . . . . . . . . . . . . . . . . . . . . . . . . . . . . . . . ",
". . . . . . . . . . . . . . . . . . . . . . . . . . . . . . . . . . . . . . . . . . . . . . . . . . . . . . . . . . . . . . . . ",
". . . . . . . . . . . . . . . . . . . . . . . . . . . . . . . . . . . . . . . . . . . . . . . . . . . . . . . . . . . . . . . . ",
". . . . . . . . . . . . . . . . . . . . . . . . . . . . . . . . . . . . . . . . . . . . . . . . . . . . . . . . . . . . . . . . ",
". . . . . . . . . . . . . . . . . . . . . . . . . . . . . . . . . . . . . . . . . . . . . . . . . . . . . . . . . . . . . . . . ",
". . . . . . . . . . . . . . . . . . . . . . . . . . . . . . . . . . . . . . . . . . . . . . . . . . . . . . . . . . . . . . . . ",
". . . . . . . . . . . . . . . . . . . . . . . . . . . . . . . . . . . . . . . . . . . . . . . . . . . . . . . . . . . . . . . . ",
". . . . . . . . . . . . . . . . . . . . . . . . . . . . . . . . . . . . . . . . . . . . . . . . . . . . . . . . . . . . . . . . ",
". . . . . . . . . . . . . . . . . . . . . . . . . . . . . . . . . . . . . . . . . . . . . . . . . . . . . . . . . . . . . . . . ",
". . . . . . . . . . . . . . . . . . . . . . . . . . . . . . . . . . . . . . . . . . . . . . . . . . . . . . . . . . . . . . . . ",
". . . . . . . . . . . . . . . . . . . . . . . . . . . . . . . . . . . . . . . . . . . . . . . . . . . . . . . . . . . . . . . . ",
". . . . . . . . . . . . . . . . . . . . . . . . . . . . . . . . . . . . . . . . . . . . . . . . . . . . . . . . . . . . . . . . ",
". . . . . . . . . . . . . . . . . . . . . . . . . . . . . . . . . . . . . . . . . . . . . . . . . . . . . . . . . . . . . . . . ",
". . . . . . . . . . . . . . . . . . . . . + @ @ @ @ @ # $ . . . . . . . . . . . . . . . . . . . . . . . . . . . . . . . . . . . ",
". . . . . . . . . . . . . . . . . . . . . % & * = - ; > , ' . . . . . . . . . . . . . . . . . . . . . . . . . . . . . . . . . . ",
". . . . . . . . . . . . . . . . . . . . . ) ! ~ { ] ^ / ( _ : . . . . . . . . . . . . . . . . . . . . . . . . . . . . . . . . . ",
". . . . < [ [ [ [ [ [ [ [ } | | | | | | | 1 2 3 4 5 6 { ] 7 8 9 . . . . . . . . . . . . . . . . . . . . . . . . . . . . . . . . ",
". . . . 0 a b c d e f f g h i i i i i j k l m n o p q 4 5 ~ r s t u . . . . . . . . . . . . . . . . . . . . . . . . . . . . . . ",
". . . v w p x y z A B C D E F F F F F E G D C B A z y o p 3 H 6 I J K . . . . . . . . . . . . . . . . . . . . . . . . . . . . . ",
". . . L M N n O A B D E P Q R S S T T T S R U P E D V A z n N q 4 W X Y . . . . . . . . . . . . . . . . . . . . . . . . . . . . ",
". . Z ` 3 N n z  .C G P U S ..+.@.#.#.#.#.@.+.$.T R Q E D B %.y o &.*.=.-.;.. . . . . . . . . . . . . . . . . . . . . . . . . . ",
". . >.,.'.p x O  .C E Q S ..@.).!.~.{.].].{.{.^.!.#.+.T R P G V A y o &./.(._.. . . . . . . . . . . . . . . . . . . . . . . . . ",
". . :.<.4 q o y A V G Q S $.#.!.{.[.}.|.1.1.1.|.}.[.{.!.#.$.S Q G V %.y N 2.3.@ 4.. . . . . . . . . . . . . . . . . . . . . . . ",
". . 5.{ 6.'.p x z B D P R ..#.^.].}.1.7.8.9.0.9.8.a.b.}.[.~.).$.S P G B %.n c.d.e.< . . . . . . . . . . . . . . . . . . . . . . ",
". f.g.h.i.5 3 N n %.V E Q T @.!.].}.b.8.j.k.l.m.m.l.n.9.a.|.[.~.#.$.R F D  .O o o.p.q.4.. . . . . . . . . . . . . . . . . . . . ",
". r.s.t.] ~ 5 3 N y A C E U ..#.~.[.1.a.j.l.u.v.w.w.v.x.k.0.a.|.].^.@.T Q E V %.n y.z.A.B.C.. . . . . . . . . . . . . . . . . . ",
". D.E.F.t.] ~ 5 3 N y A C F R $.#.~.G.b.9.k.x.w.H.I.I.H.w.u.k.9.b.G.{.).$.R F C A y N J.K.L.M.N.. . . . . . . . . . . . . . . . ",
". O.P.Q.R./ h.i.5 3 N y A C F U ..#.~.G.b.9.k.u.S.T.U.V.I.W.X.l.0.7.}.{.!.+.S P D  .O o q Y.Z.`. +.+++@+#+. . . . . . . . . . . ",
". . $+%+&+R./ h.{ 6.'.p n %.V E U T @.^.[.1.8.j.m.v.W.T.*+T.S.u.l.0.7.}.{.!.+.S P D  .O o &.4 6 =+-+;+>+,+'+)+!+~+{+]+^+. . . . ",
". . /+(+_+:+<+[+}+=+6 4 &.x z  .D P S +.).{.}.b.9.n.m.u.v.w.v.u.m.n.8.b.G.{.).$.R P D  .O o q 4 6 =+}+|+1+2+3+4+5+6+7+8+9+D.. . ",
". . 4.0+a+3+b+Q.F.t.] ~ 5 3 N y A V E U T @.!.].}.b.8.0.n.l.l.l.k.j.8.7.}.].^.@...U F C A y o q H ~ ] }+|+1+2+3+c+d+e+f+g+h+. . ",
". . . f.i+j+k+l+&+<+[+^ { 6 4 &.x O  .C F U ..@.!.{.G.|.7.a.8.9.9.8.7.1.}.].^.#.$.S P G B %.n N 3 5 i.] t.F.Q.2+3+c+m+n+o+p+. . ",
". . . . . q+r+s+t+u+v+w+x+y+z+A+B+C+D+D+D+E+F+G+H+I+J+K+L+[.}.|.|.|.|.}.[.{.^.#.$.S Q E C A O x &.4 6.{ ^ / R.&+b+M+N+O+P+Q+. . ",
". . . . . . . . R+S+T+T+U+C.. . . . . . . . . V+W+X+Y+Z+`+ @.@+@@@#@$@~.~.!.).@...S Q E C  .z n p 3 H ~ =+}+|+<+:+%@&@*@=@-@. . ",
". . . . . . . . R+. . . . . . . . . . . . . . . . . . . . . -@;@>@,@'@)@!@~@{@]@^@/@/@(@_@:@<@[@}@|@1@2@3@4@5@6@7@8@9@N.. . . . ",
". . . . . . . . . . . . . . . . . . . . . . . . . . . . . . . . . . . 0@. 0@T+T+N.N.N.@+[ [ a@| | | | | | b@c@d@. . . . . . . . ",
". . . . . . . . . . . . . . . . . . . . . . . . . . . . . . . . . . . . O.. . . . . . . . . . . . . . . . . . . . . . . . . . . ",
". . . . . . . . . . . . . . . . . . . . . . . . . . . . . . . . . . . . . . . . . . . . . . . . . . . . . . . . . . . . . . . . ",
". . . . . . . . . . . . . . . . . . . . . . . . . . . . . . . . . . . . . . . . . . . . . . . . . . . . . . . . . . . . . . . . ",
". . . . . . . . . . . . . . . . . . . . . . . . . . . . . . . . . . . . . . . . . . . . . . . . . . . . . . . . . . . . . . . . ",
". . . . . . . . . . . . . . . . . . . . . . . . . . . . . . . . . . . . . . . . . . . . . . . . . . . . . . . . . . . . . . . . ",
". . . . . . . . . . . . . . . . . . . . . . . . . . . . . . . . . . . . . . . . . . . . . . . . . . . . . . . . . . . . . . . . ",
". . . . . . . . . . . . . . . . . . . . . . . . . . . . . . . . . . . . . . . . . . . . . . . . . . . . . . . . . . . . . . . . ",
". . . . . . . . . . . . . . . . . . . . . . . . . . . . . . . . . . . . . . . . . . . . . . . . . . . . . . . . . . . . . . . . ",
". . . . . . . . . . . . . . . . . . . . . . . . . . . . . . . . . . . . . . . . . . . . . . . . . . . . . . . . . . . . . . . . ",
". . . . . . . . . . . . . . . . . . . . . . . . . . . . . . . . . . . . . . . . . . . . . . . . . . . . . . . . . . . . . . . . ",
". . . . . . . . . . . . . . . . . . . . . . . . . . . . . . . . . . . . . . . . . . . . . . . . . . . . . . . . . . . . . . . . ",
". . . . . . . . . . . . . . . . . . . . . . . . . . . . . . . . . . . . . . . . . . . . . . . . . . . . . . . . . . . . . . . . ",
". . . . . . . . . . . . . . . . . . . . . . . . . . . . . . . . . . . . . . . . . . . . . . . . . . . . . . . . . . . . . . . . ",
". . . . . . . . . . . . . . . . . . . . . . . . . . . . . . . . . . . . . . . . . . . . . . . . . . . . . . . . . . . . . . . . ",
". . . . . . . . . . . . . . . . . . . . . . . . . . . . . . . . . . . . . . . . . . . . . . . . . . . . . . . . . . . . . . . . ",
". . . . . . . . . . . . . . . . . . . . . . . . . . . . . . . . . . . . . . . . . . . . . . . . . . . . . . . . . . . . . . . . ",
". . . . . . . . . . . . . . . . . . . . . . . . . . . . . . . . . . . . . . . . . . . . . . . . . . . . . . . . . . . . . . . . ",
". . . . . . . . . . . . . . . . . . . . . . . . . . . . . . . . . . . . . . . . . . . . . . . . . . . . . . . . . . . . . . . . ",
". . . . . . . . . . . . . . . . . . . . . . . . . . . . . . . . . . . . . . . . . . . . . . . . . . . . . . . . . . . . . . . . ",
". . . . . . . . . . . . . . . . . . . . . . . . . . . . . . . . . . . . . . . . . . . . . . . . . . . . . . . . . . . . . . . . ",
". . . . . . . . . . . . . . . . . . . . . . . . . . . . . . . . . . . . . . . . . . . . . . . . . . . . . . . . . . . . . . . . "};
