/* XPM */
static char * font_xpm[] = {
"128 64 2 1",
"  	c #000000",
"x 	c #FFFFFF",
"                                                                                                                                ",
"                                                                                                                                ",
"                                                                                                                                ",
"                                                                                                                                ",
"                                                                                                                                ",
"                                                                                                                                ",
"                                                                                                                                ",
"                                                                                                                                ",
"                                                                                                                                ",
"                                                                                                                                ",
"                                                                                                                                ",
"                                                                                                                                ",
"                                                                                                                                ",
"                                                                                                                                ",
"                                                                                                                                ",
"                                                                                                                                ",
"           x      x x              x               x       x        x     x                                                  x  ",
"           x      x x     x x     xxxx   x   x    x x      x       x       x     x x x     x                                x   ",
"           x             xxxxx   x          x     x x     x       x         x     xxx      x                                x   ",
"           x              x x     xxx      x      xx x            x         x    xxxxx   xxxxx           xxxxx             x    ",
"           x             xxxxx       x    x      x  x             x         x     xxx      x                              x     ",
"                          x x    xxxx    x   x    xx x             x       x     x x x     x       x                      x     ",
"           x                       x                                x     x                        x               x     x      ",
"                                                                                                  x                             ",
"  xxx      x      xxx     xxx    x       xxxxx    xxx    xxxxx    xxx     xxx                       x             x       xxx   ",
" x  xx    xx     x   x   x   x   x       x       x   x       x   x   x   x   x                     x               x     x   x  ",
" x x x   x x         x       x   x x     xxxx    x          x    x   x   x   x     x              x      xxxxx      x       x   ",
" x x x     x        x      xx    xxxxx       x   xxxx       x     xxx     xxxx             x     x                   x     x    ",
" x x x     x       x         x     x         x   x   x     x     x   x       x                    x      xxxxx      x      x    ",
" xx  x     x      x      x   x     x     x   x   x   x     x     x   x   x   x     x       x       x               x            ",
"  xxx    xxxxx   xxxxx    xxx      x      xxx     xxx      x      xxx     xxx              x        x             x        x    ",
"                                                                                          x                                     ",
"  xxx      x     xxxx     xxx    xxxx    xxxxx   xxxxx    xxx    x   x     x       xxx   x   x   x       x   x   x   x    xxx   ",
" x   x    x x    x   x   x   x   x   x   x       x       x   x   x   x     x        x    x  x    x       xx xx   xx  x   x   x  ",
" x xxx   x   x   x   x   x       x   x   x       x       x       x   x     x        x    x x     x       x x x   x x x   x   x  ",
" x xxx   x   x   xxxx    x       x   x   xxx     xxx     x xx    xxxxx     x        x    xx      x       x   x   x x x   x   x  ",
" x xx    xxxxx   x   x   x       x   x   x       x       x x x   x   x     x        x    x x     x       x   x   x x x   x   x  ",
" x       x   x   x   x   x   x   x   x   x       x       x   x   x   x     x     x  x    x  x    x       x   x   x  xx   x   x  ",
"  xxxx   x   x   xxxx     xxx    xxxx    xxxxx   x        xxx    x   x     x      xx     x   x   xxxxx   x   x   x   x    xxx   ",
"                                                                                                                                ",
" xxxx     xxx    xxxx     xxx    xxxxx   x   x   x   x   x   x   x   x   x   x   xxxxx    xxx    x        xxx      x            ",
" x   x   x   x   x   x   x   x     x     x   x   x   x   x   x   x   x   x   x       x    x       x         x     x x           ",
" x   x   x   x   x   x    x        x     x   x   x   x   x   x    x x    x   x      x     x       x         x                   ",
" xxxx    x   x   xxxx      x       x     x   x   x   x   x   x     x      x x      x      x        x        x                   ",
" x       x x x   x x        x      x     x   x   x   x   x x x    x x      x      x       x         x       x                   ",
" x       x  xx   x  x    x   x     x     x   x    x x    xx xx   x   x     x     x        x         x       x                   ",
" x        xxxx   x   x    xxx      x      xxx      x     x   x   x   x     x     xxxxx    xxx        x    xxx                   ",
"                                                                                                                         xxxxxx ",
"   x             x                   x              x            x                       x        xx                            ",
"   x             x                   x             x x           x         x        x    x         x                            ",
"    x     xxx    xxxx     xxx     xxxx    xxx      x      xxxx   xxxx                    x  x      x     xx x    xxxx     xxx   ",
"         x   x   x   x   x   x   x   x   x   x     x     x   x   x   x     x        x    x x       x     x x x   x   x   x   x  ",
"         x   x   x   x   x       x   x   xxxxx    xxx    x   x   x   x     x        x    xx        x     x x x   x   x   x   x  ",
"         x   x   x   x   x   x   x   x   x         x      xxxx   x   x     x        x    x x       x     x x x   x   x   x   x  ",
"          xxxx   xxxx     xxx     xxxx    xxxx     x         x   x   x     x      x x    x  x      x     x x x   x   x    xxx   ",
"                                                   x      xxx                      x                                            ",
"                                   x                                                       xxx     x     xxx                    ",
"                                   x                                                       x       x       x      x x      x    ",
" xxxx     xxxx   x xx     xxxx    xxx    x   x   x   x   x   x   x   x   x   x   xxxxx     x       x       x     x x      x x   ",
" x   x   x   x   xx  x   x         x     x   x   x   x   x   x    x x     x x       x    xx        x        xx           x   x  ",
" x   x   x   x   x        xxx      x     x   x   x   x   x x x     x       x       x       x       x       x             x   x  ",
" x   x   x   x   x           x     x x   x   x    x x    x x x    x x     x       x        x       x       x             x   x  ",
" xxxx     xxxx   x       xxxx       x     xxxx     x     xx xx   x   x   x       xxxxx     xxx     x     xxx             xxxxx  ",
" x           x                                                                                     x                            "};
